<?xml version="1.0" encoding="UTF-8"?>
<!DOCTYPE svg PUBLIC "-//W3C//DTD SVG 1.1//EN" "http://www.w3.org/Graphics/SVG/1.1/DTD/svg11.dtd">
<!-- Creator: CorelDRAW 2018 (64 Bit) -->
<svg xmlns="http://www.w3.org/2000/svg" xml:space="preserve" width="250px" height="120px" version="1.1" style="shape-rendering:geometricPrecision; text-rendering:geometricPrecision; image-rendering:optimizeQuality; fill-rule:evenodd; clip-rule:evenodd"
viewBox="0 0 250 120"
 xmlns:xlink="http://www.w3.org/1999/xlink">
 <defs>
  <style type="text/css">
   <![CDATA[
    .fil0 {fill:#464646}
    .fil1 {fill:#E8EFFE}
   ]]>
  </style>
 </defs>
 <g id="Camada_x0020_1">
  <metadata id="CorelCorpID_0Corel-Layer"/>
  <g id="_2499963840416">
   <path class="fil0" d="M178.11 70.4c0,1.6 0.1,5.73 -0.06,7.04 -0.15,1.14 -0.49,2.4 -1.38,3.19 -0.5,0.44 -0.99,0.72 -1.7,0.93 -1.87,0.57 -4.62,0.57 -6.51,0.07 -3.11,-0.83 -3.64,-4.54 -2.96,-6.9 0.37,-1.32 1.47,-2.55 2.74,-3.1 0.99,-0.42 0.51,-0.33 2.28,-0.92 1.29,-0.43 2.57,-0.93 3.9,-1.37 0.89,-0.3 3.24,-0.96 3.48,-1.88 0.3,0.1 0.16,0.24 0.16,1.39 0,0.27 0,0.44 0,0.74l0.05 0.81zm-18.09 -19.13c-1.07,2.01 -1.42,3.2 -1.38,5.58 0.03,1.29 0.3,1.04 2.53,1.04 1.27,0 2.53,0 3.79,0 0.7,-1.04 0.03,-0.39 0.6,-2.02 0.24,-0.69 0.56,-1.26 1,-1.74l0.25 -0.28c0.01,-0.01 0.04,-0.03 0.05,-0.05 0.32,-0.3 0.85,-0.59 1.25,-0.74 1.79,-0.67 4.36,-0.74 6.21,-0.22 0.21,0.06 0.06,0.02 0.19,0.05 1.25,0.29 2.82,1.38 3.26,2.71 0.7,2.1 0.54,5.15 -1.6,6.35l-10.1 3.75c-0.03,0.01 -0.16,0.04 -0.18,0.05l-0.1 0.04c-1.01,0.47 -1.33,0.4 -2.51,1.04 -2.32,1.25 -3.93,3.92 -4.22,6.51 -0.18,1.56 -0.09,3.53 -0.1,5.27 -0.01,1.58 0.73,4.08 1.6,5.02 0.71,0.75 2.11,1.99 2.91,2.3 0.36,0.14 0.55,0.25 0.89,0.42 1.69,0.85 4.44,1.08 6.33,1.26 1.04,0.1 2.89,-0.07 4.06,-0.17 1.04,-0.09 2.47,-0.41 3.47,-0.72 1.27,-0.38 3.45,-1.7 4.42,-2.86 0.68,-0.82 1.22,-1.83 1.49,-2.92 0.5,-1.99 0.4,-2.59 0.4,-4.75 0,-3.55 0.13,-19.55 -0.11,-21.34 -0.21,-1.5 -0.79,-2.81 -1.54,-3.82 -1.87,-2.5 -4.39,-3.4 -7.49,-3.88 -1.47,-0.23 -0.98,-0.18 -2.75,-0.19 -4.43,-0.03 -8.74,0.17 -12.02,3.55l-0.6 0.76z"/>
   <path class="fil0" d="M84.69 69.98c0,2.04 0.12,6.18 -0.12,7.97 -0.55,4.06 -4.45,4.02 -7.35,4.02 -0.78,0 -1.28,-0.16 -2,-0.32 -1.08,-0.23 -1.76,-0.7 -2.39,-1.5 -1.27,-1.6 -1.29,-4.58 -0.37,-6.3 1.31,-2.45 4.45,-3.05 7.58,-4.2 1.23,-0.44 4.15,-1.11 4.44,-2.19 0.28,0.1 0.14,0.02 0.17,0.23l0.04 2.29zm-19.26 -12.52l0 -2.3c0,-0.76 0.25,-1.65 0.47,-2.26 0.75,-2.07 2,-3.18 3.82,-4.28 2.41,-1.45 6.86,-1.84 9.61,-1.68 0.22,0.02 0.4,0.02 0.62,0.02l3.8 0.53c0.12,0.04 0.26,0.08 0.47,0.15 1.13,0.33 1.68,0.56 2.75,1.14 2.1,1.14 4.03,4.14 4.03,6.59l0 23.23c0,1.19 -0.23,2.31 -0.71,3.4 -0.39,0.9 -0.5,1.05 -1.07,1.77 -1.44,1.83 -4.1,2.94 -6.35,3.43 -1.94,0.42 -3.92,0.47 -5.84,0.39 -2.3,-0.1 -5.03,-0.58 -7.04,-1.66 -0.54,-0.29 -1.07,-0.63 -1.52,-1 -0.28,-0.23 -0.36,-0.34 -0.68,-0.59 -0.31,-0.23 -0.39,-0.34 -0.62,-0.64l-0.77 -1.09c-0.05,-0.08 -0.05,-0.08 -0.07,-0.15 -0.46,-1.29 -0.81,-2.47 -0.85,-3.89 -0.05,-2.23 -0.16,-5.29 0.66,-7.36 0.88,-2.25 1.69,-3.07 3.31,-4.15 0.56,-0.37 1.02,-0.58 1.69,-0.83l6.11 -2.14c1.07,-0.46 4.23,-1.37 4.95,-1.85l0.59 -0.35c0.8,-0.5 1.32,-1.19 1.65,-2.14 0.29,-0.82 0.2,-2.57 0.17,-2.94 -0.14,-1.39 -0.83,-2.44 -1.9,-3.15 -2.12,-1.4 -6.37,-1.56 -8.69,-0.32l-1.02 0.87c-0.06,0.08 -0.03,0.03 -0.14,0.18l-0.76 1.44c-0.39,1.16 -0.18,2.06 -0.78,2.06l-5.26 0c-0.39,0 -0.56,-0.12 -0.63,-0.43z"/>
   <path class="fil0" d="M108.04 47.7l0 29.96c0,4.19 1.44,6.95 5.4,8.79 3.53,1.64 8.99,1.61 12.9,0.77 2.13,-0.46 4.35,-1.65 5.75,-3.3 0.42,-0.5 0.82,-1.04 1.1,-1.64 0.04,-0.1 0.18,-0.4 0.21,-0.49 0.05,-0.14 0,0.01 0.05,-0.17 0.6,-2.23 0.58,-3.71 0.58,-6.17l-0.08 -1.31c0,-0.02 0,-0.05 0,-0.08l-0.03 -17.53c0,-3.03 -0.11,-5.85 -0.06,-8.85 0.02,-0.95 -0.94,-0.75 -2.37,-0.76l-3.98 0.04c-0.28,1.2 -0.11,8.57 -0.11,10.41 0,3.5 0,7.01 0,10.51 0,2.33 0.24,8.69 -0.22,10.3 -0.21,0.72 -0.38,1.27 -0.81,1.81 -0.2,0.25 -0.4,0.44 -0.65,0.61 -0.85,0.58 -1.76,1.01 -2.82,1.12 -0.29,0.03 0.02,-0.02 -0.21,0.02 -2.17,0.37 -4.58,0.3 -6.48,-0.99 -0.91,-0.63 -1.21,-1.37 -1.51,-2.49 -0.51,-1.95 -0.24,-7.69 -0.24,-10.27l0 -15.77c0,-1.53 0.19,-3.98 -0.11,-5.26l-5.57 0c-0.3,0 -0.29,-0.2 -0.61,0.13 -0.33,0.32 -0.13,0.31 -0.13,0.61z"/>
   <path class="fil0" d="M96.47 32.35c-0.06,0.23 -0.11,0.24 -0.11,0.52l0 54.35c0,0.34 0.39,0.53 0.74,0.53 1.16,0 4.81,0.21 5.68,-0.21l0.01 -54.67c-0.03,-0.38 -0.05,-0.63 -0.43,-0.63 -1.02,0 -5.21,-0.16 -5.89,0.11z"/>
   <path class="fil0" d="M139.5 55.79l0 31.43c0,0.25 0.17,0.43 0.42,0.43 6.98,0 6.1,0.58 6.1,-2.21l0 -25.13c0,-2.95 -0.4,-5.06 1.87,-6.55 0.02,-0.01 0.04,-0.03 0.06,-0.04 0.61,-0.4 0.94,-0.54 1.67,-0.75 0.88,-0.24 1.38,-0.34 2.5,-0.33 0.95,0 1.9,0 2.85,0 0.49,-0.74 1.47,-4.84 1.47,-5.36 0,-0.5 -1.47,-0.32 -2,-0.32 -0.48,0 0.06,-0.05 -0.34,-0.06l-2.85 0.03c-1.56,0.09 -2.66,0.1 -4.21,0.52l-1.45 0.44c-2.09,1 -3.69,1.86 -4.95,3.88l-0.85 2.01c-0.01,0.03 -0.02,0.19 -0.02,0.21 -0.07,0.62 -0.27,1.08 -0.27,1.8z"/>
   <polygon class="fil1" points="160.02,51.27 160.02,51.17 159.89,51.25 "/>
  </g>
 </g>
</svg>
