<?xml version="1.0" encoding="UTF-8"?>
<!DOCTYPE svg PUBLIC "-//W3C//DTD SVG 1.1//EN" "http://www.w3.org/Graphics/SVG/1.1/DTD/svg11.dtd">
<!-- Creator: CorelDRAW 2018 (64 Bit) -->
<svg xmlns="http://www.w3.org/2000/svg" xml:space="preserve" width="35px" height="35px" version="1.1" style="shape-rendering:geometricPrecision; text-rendering:geometricPrecision; image-rendering:optimizeQuality; fill-rule:evenodd; clip-rule:evenodd"
viewBox="0 0 35 35"
 xmlns:xlink="http://www.w3.org/1999/xlink">
 <defs>
  <style type="text/css">
   <![CDATA[
    .fil0 {fill:#2A7AE4}
   ]]>
  </style>
 </defs>
 <g id="Camada_x0020_1">
  <metadata id="CorelCorpID_0Corel-Layer"/>
  <g id="_2236244968080">
   <path class="fil0" d="M6.84 17.93c0,0.62 0.85,1.25 2.09,1.25 1.66,0 1.47,-1.82 2.06,-2.96 0.71,-1.37 1.58,-1.33 2.96,-2.05 -0.92,3.93 -3.76,15.08 -3.76,18.8 0,0.51 0.86,1.26 1.67,1.26 2.27,0 3.24,-8.22 3.76,-10.45 4.96,3.63 0.44,10.45 4.18,10.45 2.44,0 1.67,-3.8 1.67,-7.94 0,-2.12 -1.67,-2.89 -1.67,-3.77 0,-2.11 0.79,-2.83 0.84,-5.01 1.28,0.34 7.52,6.4 7.52,1.25 0,-1.86 -3.26,-1.23 -4.73,-4.88 -1.86,-4.6 -2.09,-4.73 -6.97,-4.73 -0.69,0 -9.62,2.06 -9.62,8.78z"/>
   <path class="fil0" d="M16.46 4.14c0,4.48 6.68,4.48 6.68,0 0,-4.49 -6.68,-4.49 -6.68,0z"/>
  </g>
 </g>
</svg>
