<?xml version="1.0" encoding="UTF-8"?>
<!DOCTYPE svg PUBLIC "-//W3C//DTD SVG 1.1//EN" "http://www.w3.org/Graphics/SVG/1.1/DTD/svg11.dtd">
<!-- Creator: CorelDRAW 2018 (64 Bit) -->
<svg xmlns="http://www.w3.org/2000/svg" xml:space="preserve" width="35px" height="35px" version="1.1" style="shape-rendering:geometricPrecision; text-rendering:geometricPrecision; image-rendering:optimizeQuality; fill-rule:evenodd; clip-rule:evenodd"
viewBox="0 0 35 35"
 xmlns:xlink="http://www.w3.org/1999/xlink">
 <defs>
  <style type="text/css">
   <![CDATA[
    .fil0 {fill:#2A7AE4}
   ]]>
  </style>
 </defs>
 <g id="Camada_x0020_1">
  <metadata id="CorelCorpID_0Corel-Layer"/>
  <path class="fil0" d="M9.31 9.68c0,-4.59 -2.1,-3.35 16.01,-3.35 1.45,0 1.12,0.95 1.12,3.35 0,0.85 -0.26,1.11 -1.12,1.11l-14.9 0c-0.86,0 -1.11,-0.26 -1.11,-1.11zm-5.96 -5.22l0 26.45c0,2.06 2.14,3.72 4.09,3.72l24.21 0 0 -1.49 -23.46 0c-3.89,0 -4.93,-5.21 0.37,-5.21l23.09 0 0 -27.57 -24.21 0c-2.17,0 -4.09,1.93 -4.09,4.1z"/>
 </g>
</svg>
