<?xml version="1.0" encoding="UTF-8"?>
<!DOCTYPE svg PUBLIC "-//W3C//DTD SVG 1.1//EN" "http://www.w3.org/Graphics/SVG/1.1/DTD/svg11.dtd">
<!-- Creator: CorelDRAW 2018 (64 Bit) -->
<svg xmlns="http://www.w3.org/2000/svg" xml:space="preserve" width="35px" height="35px" version="1.1" style="shape-rendering:geometricPrecision; text-rendering:geometricPrecision; image-rendering:optimizeQuality; fill-rule:evenodd; clip-rule:evenodd"
viewBox="0 0 35 35"
 xmlns:xlink="http://www.w3.org/1999/xlink">
 <defs>
  <style type="text/css">
   <![CDATA[
    .fil0 {fill:#2A7AE4}
   ]]>
  </style>
 </defs>
 <g id="Camada_x0020_1">
  <metadata id="CorelCorpID_0Corel-Layer"/>
  <path id="icons8-python.svg" class="fil0" d="M17.14 1.12c-6.19,0 -7.48,3.2 -7.48,5.05l0 3.49 7.13 0 0 0.72 -10.62 0c-2.35,0 -5.05,1.85 -5.05,7.12 0,5.27 2.7,7.12 5.05,7.12l4.21 0 0 -4.27c0,-1.57 1.28,-2.85 2.85,-2.85l8.54 0c1.21,0 2.14,-0.93 2.14,-2.14l0 -9.19c0,-2.49 -2.35,-5.05 -6.77,-5.05zm-3.2 3.56c0.78,0 1.42,0.64 1.42,1.42 0,0.79 -0.64,1.43 -1.42,1.43 -0.79,0 -1.43,-0.64 -1.43,-1.43 0,-0.78 0.64,-1.42 1.43,-1.42zm10.68 5.7l0 4.98c0,1.57 -1.28,2.85 -2.85,2.85l-8.54 0c-1.21,0 -2.14,0.93 -2.14,2.14l0 8.48c0,2.49 2.35,5.05 6.77,5.05 6.19,0 7.48,-3.2 7.48,-5.05l0 -3.49 -7.13 0 0 -0.72 10.62 0c2.35,0 5.05,-1.85 5.05,-7.12 0,-5.27 -2.7,-7.12 -5.05,-7.12l-4.21 0zm-3.56 17.09c0.79,0 1.43,0.64 1.43,1.43 0,0.78 -0.64,1.42 -1.43,1.42 -0.78,0 -1.42,-0.64 -1.42,-1.42 0,-0.79 0.64,-1.43 1.42,-1.43z"/>
 </g>
</svg>
