<?xml version="1.0" encoding="UTF-8"?>
<!DOCTYPE svg PUBLIC "-//W3C//DTD SVG 1.1//EN" "http://www.w3.org/Graphics/SVG/1.1/DTD/svg11.dtd">
<!-- Creator: CorelDRAW 2018 (64 Bit) -->
<svg xmlns="http://www.w3.org/2000/svg" xml:space="preserve" width="35px" height="35px" version="1.1" style="shape-rendering:geometricPrecision; text-rendering:geometricPrecision; image-rendering:optimizeQuality; fill-rule:evenodd; clip-rule:evenodd"
viewBox="0 0 35 35"
 xmlns:xlink="http://www.w3.org/1999/xlink">
 <defs>
  <style type="text/css">
   <![CDATA[
    .fil0 {fill:#2A7AE4}
    .fil1 {fill:white}
   ]]>
  </style>
 </defs>
 <g id="Camada_x0020_1">
  <metadata id="CorelCorpID_0Corel-Layer"/>
  <path class="fil0" d="M21.83 16.42c0,-3.7 -0.44,-3.25 3.25,-3.25 1.41,0 1.08,0.92 1.08,3.25 0,1.4 -0.92,1.08 -3.24,1.08 -0.84,0 -1.09,-0.25 -1.09,-1.08zm-12.99 0c0,-3.7 -0.45,-3.25 3.24,-3.25 1.41,0 1.09,0.92 1.09,3.25 0,1.4 -0.93,1.08 -3.25,1.08 -0.83,0 -1.08,-0.25 -1.08,-1.08zm-2.89 -7.58l2.89 0 0 1.44 -2.89 0 0 4.33 -2.89 0 0 2.89 -2.89 0 0 10.11 4.33 0 0 -5.78 1.45 0 0 5.78 2.89 0 0 2.89 7.22 0 0 -4.34 -5.78 0 0 -1.44 14.44 0 0 1.44 -5.78 0 0 4.34 7.22 0 0 -2.89 2.89 0 0 -5.78 1.45 0 0 5.78 4.33 0 0 -10.11 -2.89 0 0 -2.89 -2.89 0 0 -4.33 -2.89 0 0 -1.44 2.89 0 0 -4.34 -4.33 0 0 2.89 -2.89 0 0 2.89 -8.66 0 0 -2.89 -2.89 0 0 -2.89 -4.33 0 0 4.34z"/>
  <rect class="fil1" x="8.73" y="13" width="4.46" height="4.66"/>
  <rect class="fil1" x="21.74" y="13" width="4.46" height="4.66"/>
 </g>
</svg>
